<svg width="15" height="22" viewBox="0 0 15 22" fill="none" xmlns="http://www.w3.org/2000/svg">
<path d="M6.58451 21.1577C6.18931 21.1577 5.79412 21.1577 5.39892 21.1577C5.39892 20.7063 5.39892 20.2549 5.39892 19.7534C3.6864 19.7534 2.05292 19.7534 0.419434 19.7534C0.419434 13.7973 0.419434 7.91654 0.419434 1.9605C2.09244 1.9605 3.72592 1.9605 5.39892 1.9605C5.39892 1.45894 5.39892 1.03262 5.39892 0.59375C5.7546 0.59375 6.0971 0.59375 6.45278 0.59375C6.53182 0.631367 6.61086 0.681523 6.6899 0.694062C9.20599 1.13293 11.7221 1.55925 14.2382 1.97304C14.6597 2.03574 14.7519 2.21128 14.7519 2.58745C14.7256 3.69089 14.7387 4.79432 14.7387 5.9103C14.7387 10.2739 14.7256 14.6375 14.7387 18.9885C14.7387 19.4775 14.6992 19.7659 14.0406 19.8412C12.855 19.9665 11.6694 20.2173 10.497 20.4305C9.17964 20.6562 7.88866 20.907 6.58451 21.1577ZM5.3594 18.2612C5.3594 13.2958 5.3594 8.40556 5.3594 3.51534C4.18698 3.51534 3.06726 3.51534 1.93436 3.51534C1.93436 8.45572 1.93436 13.3459 1.93436 18.2612C3.0936 18.2612 4.20015 18.2612 5.3594 18.2612ZM7.75693 10.9259C7.41442 10.6124 7.21683 10.4243 7.00605 10.2363C6.82163 10.4494 6.4923 10.65 6.4923 10.8632C6.4923 11.0889 6.78211 11.3146 6.95336 11.5529C7.16413 11.3773 7.38808 11.2018 7.75693 10.9259Z" fill="white"/>
</svg>
